<svg width="216" height="78" viewBox="0 0 216 78" fill="none" xmlns="http://www.w3.org/2000/svg">
<rect width="216" height="78" rx="10" fill="#8FBAED" fill-opacity="0.22"/>
<g filter="url(#filter0_d)">
<path d="M22.8193 48V30.2266H27.8364C29.3826 30.2266 30.7498 30.5684 31.938 31.252C33.1261 31.9355 34.0417 32.908 34.6846 34.1694C35.3356 35.4308 35.6652 36.8794 35.6733 38.5151V39.6504C35.6733 41.3268 35.3478 42.7957 34.6968 44.0571C34.0539 45.3185 33.1302 46.2869 31.9258 46.9624C30.7295 47.6379 29.3338 47.9837 27.7388 48H22.8193ZM25.1631 32.1553V46.0835H27.6289C29.4355 46.0835 30.8394 45.522 31.8403 44.3989C32.8494 43.2759 33.354 41.6768 33.354 39.6016V38.564C33.354 36.5457 32.8779 34.9792 31.9258 33.8643C30.9818 32.7412 29.639 32.1715 27.8975 32.1553H25.1631ZM45.2559 36.8184C44.9141 36.7614 44.5438 36.7329 44.145 36.7329C42.6639 36.7329 41.6589 37.3636 41.1299 38.625V48H38.8716V34.792H41.0688L41.1055 36.3179C41.846 35.1379 42.8958 34.5479 44.2549 34.5479C44.6943 34.5479 45.028 34.6048 45.2559 34.7188V36.8184ZM55.0093 48C54.8791 47.7396 54.7733 47.2757 54.6919 46.6084C53.6421 47.6989 52.3888 48.2441 50.9321 48.2441C49.63 48.2441 48.5599 47.8779 47.7217 47.1455C46.8916 46.4049 46.4766 45.4691 46.4766 44.3379C46.4766 42.9626 46.9974 41.8965 48.0391 41.1396C49.0889 40.3747 50.5618 39.9922 52.458 39.9922H54.6553V38.9546C54.6553 38.1652 54.4193 37.5386 53.9473 37.0747C53.4753 36.6027 52.7795 36.3667 51.8599 36.3667C51.0542 36.3667 50.3787 36.5701 49.8335 36.9771C49.2882 37.384 49.0156 37.8763 49.0156 38.4541H46.7451C46.7451 37.7949 46.9771 37.1602 47.4409 36.5498C47.9129 35.9313 48.5477 35.443 49.3452 35.085C50.1509 34.7269 51.0339 34.5479 51.9941 34.5479C53.516 34.5479 54.7082 34.9303 55.5708 35.6953C56.4334 36.4521 56.881 37.4979 56.9136 38.8325V44.9116C56.9136 46.1242 57.0682 47.0885 57.3774 47.8047V48H55.0093ZM51.2617 46.2788C51.9697 46.2788 52.6411 46.0957 53.2759 45.7295C53.9106 45.3633 54.3704 44.8872 54.6553 44.3013V41.5913H52.8853C50.1183 41.5913 48.7349 42.401 48.7349 44.0205C48.7349 44.7285 48.9709 45.2819 49.4429 45.6807C49.9149 46.0794 50.5212 46.2788 51.2617 46.2788ZM59.9165 41.2861C59.9165 39.2272 60.3926 37.5915 61.3447 36.3789C62.2969 35.1582 63.5583 34.5479 65.1289 34.5479C66.7402 34.5479 67.9976 35.1175 68.9009 36.2568L69.0107 34.792H71.0737V47.6826C71.0737 49.3916 70.5651 50.7384 69.5479 51.7231C68.5387 52.7078 67.1797 53.2002 65.4707 53.2002C64.5186 53.2002 63.5868 52.9967 62.6753 52.5898C61.7638 52.1829 61.068 51.6255 60.5879 50.9175L61.7598 49.5625C62.7282 50.7588 63.9123 51.3569 65.312 51.3569C66.4106 51.3569 67.2651 51.0477 67.8755 50.4292C68.494 49.8107 68.8032 48.9399 68.8032 47.8169V46.6816C67.8999 47.7233 66.667 48.2441 65.1045 48.2441C63.5583 48.2441 62.305 47.6216 61.3447 46.3765C60.3926 45.1313 59.9165 43.4346 59.9165 41.2861ZM62.187 41.5425C62.187 43.0317 62.4922 44.2036 63.1025 45.0581C63.7129 45.9045 64.5674 46.3276 65.666 46.3276C67.0902 46.3276 68.1359 45.6807 68.8032 44.3867V38.3564C68.1115 37.0951 67.0739 36.4644 65.6904 36.4644C64.5918 36.4644 63.7332 36.8916 63.1147 37.7461C62.4963 38.6006 62.187 39.866 62.187 41.5425ZM73.8936 41.2739C73.8936 39.98 74.1458 38.8162 74.6504 37.7827C75.1631 36.7492 75.8711 35.9517 76.7744 35.3901C77.6859 34.8286 78.7235 34.5479 79.8872 34.5479C81.6857 34.5479 83.1383 35.1704 84.2451 36.4155C85.36 37.6606 85.9175 39.3167 85.9175 41.3838V41.5425C85.9175 42.8283 85.6693 43.9839 85.1729 45.0093C84.6846 46.0265 83.9806 46.82 83.061 47.3896C82.1496 47.9593 81.0998 48.2441 79.9116 48.2441C78.1213 48.2441 76.6686 47.6216 75.5537 46.3765C74.4469 45.1313 73.8936 43.4834 73.8936 41.4326V41.2739ZM76.1641 41.5425C76.1641 43.0073 76.5018 44.1833 77.1772 45.0703C77.8608 45.9574 78.7723 46.4009 79.9116 46.4009C81.0591 46.4009 81.9705 45.9533 82.646 45.0581C83.3215 44.1548 83.6592 42.8934 83.6592 41.2739C83.6592 39.8254 83.3133 38.6535 82.6216 37.7583C81.938 36.855 81.0265 36.4033 79.8872 36.4033C78.7723 36.4033 77.873 36.8468 77.1895 37.7339C76.5059 38.6209 76.1641 39.8905 76.1641 41.5425ZM96.4399 44.4966C96.4399 43.8862 96.208 43.4142 95.7441 43.0806C95.2884 42.7388 94.4868 42.4458 93.3394 42.2017C92.2 41.9575 91.2926 41.6646 90.6172 41.3228C89.9499 40.981 89.4535 40.5741 89.1279 40.1021C88.8105 39.63 88.6519 39.0685 88.6519 38.4175C88.6519 37.3351 89.1076 36.4196 90.019 35.6709C90.9386 34.9222 92.1105 34.5479 93.5347 34.5479C95.0321 34.5479 96.2446 34.9344 97.1724 35.7075C98.1082 36.4806 98.5762 37.4694 98.5762 38.6738H96.3057C96.3057 38.0553 96.0412 37.5223 95.5122 37.0747C94.9914 36.6271 94.3322 36.4033 93.5347 36.4033C92.7127 36.4033 92.0698 36.5824 91.606 36.9404C91.1421 37.2985 90.9102 37.7664 90.9102 38.3442C90.9102 38.8895 91.1258 39.3005 91.5571 39.5771C91.9884 39.8538 92.7656 40.1183 93.8887 40.3706C95.0199 40.6229 95.9354 40.924 96.6353 41.2739C97.3351 41.6239 97.8519 42.047 98.1855 42.5435C98.5273 43.0317 98.6982 43.6299 98.6982 44.3379C98.6982 45.5179 98.2262 46.466 97.2822 47.1821C96.3382 47.8901 95.1134 48.2441 93.6079 48.2441C92.55 48.2441 91.6141 48.057 90.8003 47.6826C89.9865 47.3083 89.3477 46.7874 88.8838 46.1201C88.4281 45.4447 88.2002 44.7163 88.2002 43.9351H90.4585C90.4992 44.6919 90.8003 45.2941 91.3618 45.7417C91.9315 46.1812 92.6802 46.4009 93.6079 46.4009C94.4624 46.4009 95.146 46.23 95.6587 45.8882C96.1795 45.5382 96.4399 45.0744 96.4399 44.4966ZM113.432 40.0776C111.422 39.4998 109.957 38.7918 109.038 37.9536C108.126 37.1073 107.67 36.0656 107.67 34.8286C107.67 33.4289 108.228 32.2733 109.343 31.3618C110.466 30.4422 111.923 29.9824 113.713 29.9824C114.934 29.9824 116.02 30.2184 116.972 30.6904C117.932 31.1624 118.673 31.8135 119.194 32.6436C119.723 33.4736 119.987 34.381 119.987 35.3657H117.631C117.631 34.2915 117.29 33.4492 116.606 32.8389C115.922 32.2204 114.958 31.9111 113.713 31.9111C112.557 31.9111 111.654 32.1675 111.003 32.6802C110.36 33.1847 110.039 33.8887 110.039 34.792C110.039 35.5163 110.344 36.1307 110.954 36.6353C111.573 37.1317 112.618 37.5874 114.091 38.0024C115.572 38.4175 116.728 38.8773 117.558 39.3818C118.396 39.8783 119.015 40.4601 119.414 41.1274C119.82 41.7948 120.024 42.5801 120.024 43.4834C120.024 44.9238 119.462 46.0794 118.339 46.9502C117.216 47.8128 115.715 48.2441 113.835 48.2441C112.614 48.2441 111.475 48.0122 110.417 47.5483C109.359 47.0763 108.541 46.4334 107.963 45.6196C107.394 44.8058 107.109 43.8822 107.109 42.8486H109.465C109.465 43.9229 109.86 44.7733 110.649 45.3999C111.446 46.0184 112.508 46.3276 113.835 46.3276C115.072 46.3276 116.02 46.0754 116.679 45.5708C117.338 45.0662 117.668 44.3786 117.668 43.5078C117.668 42.637 117.363 41.9657 116.752 41.4937C116.142 41.0135 115.035 40.5415 113.432 40.0776ZM130.839 48C130.709 47.7396 130.603 47.2757 130.522 46.6084C129.472 47.6989 128.219 48.2441 126.762 48.2441C125.46 48.2441 124.39 47.8779 123.552 47.1455C122.722 46.4049 122.307 45.4691 122.307 44.3379C122.307 42.9626 122.827 41.8965 123.869 41.1396C124.919 40.3747 126.392 39.9922 128.288 39.9922H130.485V38.9546C130.485 38.1652 130.249 37.5386 129.777 37.0747C129.305 36.6027 128.61 36.3667 127.69 36.3667C126.884 36.3667 126.209 36.5701 125.664 36.9771C125.118 37.384 124.846 37.8763 124.846 38.4541H122.575C122.575 37.7949 122.807 37.1602 123.271 36.5498C123.743 35.9313 124.378 35.443 125.175 35.085C125.981 34.7269 126.864 34.5479 127.824 34.5479C129.346 34.5479 130.538 34.9303 131.401 35.6953C132.264 36.4521 132.711 37.4979 132.744 38.8325V44.9116C132.744 46.1242 132.898 47.0885 133.208 47.8047V48H130.839ZM127.092 46.2788C127.8 46.2788 128.471 46.0957 129.106 45.7295C129.741 45.3633 130.201 44.8872 130.485 44.3013V41.5913H128.715C125.948 41.5913 124.565 42.401 124.565 44.0205C124.565 44.7285 124.801 45.2819 125.273 45.6807C125.745 46.0794 126.351 46.2788 127.092 46.2788ZM138.42 34.792L138.493 36.4521C139.502 35.1826 140.821 34.5479 142.448 34.5479C145.24 34.5479 146.647 36.1226 146.672 39.272V48H144.414V39.2598C144.405 38.3076 144.186 37.6037 143.754 37.1479C143.331 36.6922 142.668 36.4644 141.765 36.4644C141.032 36.4644 140.389 36.6597 139.836 37.0503C139.283 37.4409 138.851 37.9536 138.542 38.5884V48H136.284V34.792H138.42ZM149.528 41.2861C149.528 39.2598 150.008 37.6322 150.969 36.4033C151.929 35.1663 153.186 34.5479 154.741 34.5479C156.287 34.5479 157.512 35.0768 158.415 36.1348V29.25H160.673V48H158.598L158.488 46.584C157.585 47.6908 156.328 48.2441 154.716 48.2441C153.186 48.2441 151.937 47.6175 150.969 46.3643C150.008 45.111 149.528 43.4753 149.528 41.457V41.2861ZM151.787 41.5425C151.787 43.0399 152.096 44.2118 152.714 45.0581C153.333 45.9045 154.187 46.3276 155.278 46.3276C156.71 46.3276 157.756 45.6847 158.415 44.3989V38.332C157.74 37.0869 156.702 36.4644 155.302 36.4644C154.195 36.4644 153.333 36.8916 152.714 37.7461C152.096 38.6006 151.787 39.866 151.787 41.5425ZM166.643 48H164.384V34.792H166.643V48ZM164.201 31.2886C164.201 30.9224 164.311 30.6131 164.531 30.3608C164.759 30.1086 165.092 29.9824 165.532 29.9824C165.971 29.9824 166.305 30.1086 166.533 30.3608C166.761 30.6131 166.875 30.9224 166.875 31.2886C166.875 31.6548 166.761 31.96 166.533 32.2041C166.305 32.4482 165.971 32.5703 165.532 32.5703C165.092 32.5703 164.759 32.4482 164.531 32.2041C164.311 31.96 164.201 31.6548 164.201 31.2886ZM175.566 46.4009C176.372 46.4009 177.076 46.1567 177.678 45.6685C178.28 45.1802 178.614 44.5698 178.679 43.8374H180.815C180.774 44.5942 180.514 45.3145 180.034 45.998C179.554 46.6816 178.911 47.2269 178.105 47.6338C177.307 48.0407 176.461 48.2441 175.566 48.2441C173.767 48.2441 172.335 47.646 171.269 46.4497C170.211 45.2453 169.682 43.6014 169.682 41.5181V41.1396C169.682 39.8538 169.918 38.7104 170.39 37.7095C170.862 36.7085 171.538 35.9313 172.417 35.3779C173.304 34.8245 174.349 34.5479 175.554 34.5479C177.035 34.5479 178.264 34.9914 179.24 35.8784C180.225 36.7655 180.75 37.917 180.815 39.333H178.679C178.614 38.4785 178.288 37.7786 177.702 37.2334C177.124 36.68 176.408 36.4033 175.554 36.4033C174.406 36.4033 173.515 36.8184 172.88 37.6484C172.254 38.4704 171.94 39.6626 171.94 41.2251V41.6523C171.94 43.1742 172.254 44.346 172.88 45.168C173.507 45.9899 174.402 46.4009 175.566 46.4009ZM191.508 48C191.378 47.7396 191.272 47.2757 191.191 46.6084C190.141 47.6989 188.888 48.2441 187.431 48.2441C186.129 48.2441 185.059 47.8779 184.221 47.1455C183.391 46.4049 182.976 45.4691 182.976 44.3379C182.976 42.9626 183.496 41.8965 184.538 41.1396C185.588 40.3747 187.061 39.9922 188.957 39.9922H191.154V38.9546C191.154 38.1652 190.918 37.5386 190.446 37.0747C189.974 36.6027 189.278 36.3667 188.359 36.3667C187.553 36.3667 186.878 36.5701 186.333 36.9771C185.787 37.384 185.515 37.8763 185.515 38.4541H183.244C183.244 37.7949 183.476 37.1602 183.94 36.5498C184.412 35.9313 185.047 35.443 185.844 35.085C186.65 34.7269 187.533 34.5479 188.493 34.5479C190.015 34.5479 191.207 34.9303 192.07 35.6953C192.932 36.4521 193.38 37.4979 193.413 38.8325V44.9116C193.413 46.1242 193.567 47.0885 193.876 47.8047V48H191.508ZM187.761 46.2788C188.469 46.2788 189.14 46.0957 189.775 45.7295C190.41 45.3633 190.869 44.8872 191.154 44.3013V41.5913H189.384C186.617 41.5913 185.234 42.401 185.234 44.0205C185.234 44.7285 185.47 45.2819 185.942 45.6807C186.414 46.0794 187.02 46.2788 187.761 46.2788Z" fill="#2F6DCB"/>
</g>
<defs>
<filter id="filter0_d" x="18.8193" y="29.25" width="179.057" height="31.9502" filterUnits="userSpaceOnUse" color-interpolation-filters="sRGB">
<feFlood flood-opacity="0" result="BackgroundImageFix"/>
<feColorMatrix in="SourceAlpha" type="matrix" values="0 0 0 0 0 0 0 0 0 0 0 0 0 0 0 0 0 0 127 0"/>
<feOffset dy="4"/>
<feGaussianBlur stdDeviation="2"/>
<feColorMatrix type="matrix" values="0 0 0 0 0 0 0 0 0 0 0 0 0 0 0 0 0 0 0.25 0"/>
<feBlend mode="normal" in2="BackgroundImageFix" result="effect1_dropShadow"/>
<feBlend mode="normal" in="SourceGraphic" in2="effect1_dropShadow" result="shape"/>
</filter>
</defs>
</svg>
